<?xml version="1.0" standalone="no"?>
<!DOCTYPE svg PUBLIC "-//W3C//DTD SVG 20010904//EN"
 "http://www.w3.org/TR/2001/REC-SVG-20010904/DTD/svg10.dtd">
<svg version="1.0" xmlns="http://www.w3.org/2000/svg"
 width="100.000000pt" height="100.000000pt" viewBox="0 0 100.000000 100.000000"
 preserveAspectRatio="xMidYMid meet">

<g transform="translate(0.000000,100.000000) scale(0.100000,-0.100000)"
fill="#000000" stroke="none">
<path d="M433 991 c-49 -13 -120 -58 -146 -94 -84 -111 -86 -224 -8 -413 51
-123 198 -364 222 -364 15 0 126 176 179 280 71 142 94 220 94 315 1 70 -3 87
-29 133 -32 58 -67 92 -126 123 -44 22 -138 32 -186 20z m174 -54 c39 -21 88
-70 111 -111 29 -54 22 -183 -16 -285 -46 -123 -180 -361 -202 -361 -14 0
-111 160 -161 264 -84 177 -99 308 -46 399 27 45 84 92 133 107 41 13 144 6
181 -13z"/>
<path d="M441 823 c-124 -65 -93 -242 45 -259 73 -9 141 46 150 122 13 104
-103 186 -195 137z m108 -37 c47 -25 63 -83 37 -135 -35 -66 -137 -66 -172 0
-47 91 44 182 135 135z"/>
<path d="M235 304 c-138 -33 -215 -83 -215 -141 0 -38 58 -87 132 -112 248
-85 677 -56 793 54 83 77 11 155 -184 199 -50 12 -68 12 -79 4 -12 -10 -11
-14 4 -25 10 -7 28 -13 40 -13 72 0 214 -70 214 -105 0 -37 -85 -79 -215 -107
-79 -16 -371 -16 -450 0 -130 28 -215 70 -215 107 0 35 142 105 212 105 10 0
28 5 39 11 16 8 18 13 8 25 -6 8 -14 14 -18 13 -3 0 -33 -7 -66 -15z"/>
</g>
</svg>
