<svg version="1.0" xmlns="http://www.w3.org/2000/svg" width="100.000000pt" height="100.000000pt" viewBox="0 0 100.000000 100.000000" preserveAspectRatio="xMidYMid meet">
  <g transform="translate(0.000000,100.000000) scale(0.100000,-0.100000)" fill="#000000" stroke="none">
    <path d="M0 500 l0 -360 500 0 500 0 0 360 0 360 -500 0 -500 0 0 -360z m960
295 c0 -20 -42 -61 -207 -205 -114 -99 -217 -183 -230 -186 -13 -4 -33 -4 -46
0 -13 3 -117 87 -230 186 -163 143 -207 187 -207 206 l0 24 460 0 460 0 0 -25z
m-777 -203 c65 -58 115 -108 110 -112 -4 -4 -63 -50 -130 -103 l-123 -97 0
216 c0 169 3 214 13 208 6 -4 65 -55 130 -112z m777 -97 l0 -215 -127 101
c-71 56 -129 103 -131 104 -4 3 248 225 254 225 2 0 4 -97 4 -215z m-485 -131
c46 -8 87 7 145 56 l49 41 145 -116 c118 -93 146 -120 146 -140 l0 -25 -461 0
-460 0 3 27 c2 21 34 51 146 140 l143 113 55 -45 c30 -24 70 -47 89 -51z" />
  </g>
</svg>
