<?xml version="1.0" standalone="no"?>
<!DOCTYPE svg PUBLIC "-//W3C//DTD SVG 20010904//EN"
 "http://www.w3.org/TR/2001/REC-SVG-20010904/DTD/svg10.dtd">
<svg version="1.0" xmlns="http://www.w3.org/2000/svg"
 width="100.000000pt" height="100.000000pt" viewBox="0 0 100.000000 100.000000"
 preserveAspectRatio="xMidYMid meet">

<g transform="translate(0.000000,100.000000) scale(0.100000,-0.100000)"
fill="#000000" stroke="none">
<path d="M477 711 c-213 -92 -395 -175 -404 -183 -10 -11 -13 -25 -9 -41 5
-21 21 -31 84 -55 42 -16 90 -34 106 -39 28 -9 33 -18 66 -129 20 -66 39 -125
44 -132 15 -24 49 -11 103 38 54 49 76 59 88 41 15 -25 169 -131 189 -131 51
0 59 25 130 395 36 193 66 355 66 362 0 19 -30 43 -53 42 -12 0 -197 -76 -410
-168z m423 122 c0 -12 -130 -688 -135 -702 -9 -23 -38 -7 -168 95 -111 85
-125 100 -113 113 317 372 329 388 300 398 -5 2 -116 -69 -248 -156 l-238
-159 -83 28 c-107 36 -122 44 -104 56 23 15 763 333 777 333 6 1 12 -2 12 -6z
m-359 -363 c-109 -128 -121 -145 -131 -197 -7 -32 -15 -64 -19 -71 -4 -7 -20
30 -38 88 l-31 101 162 109 c88 60 165 109 169 109 4 1 -46 -62 -112 -139z
m-61 -205 c11 -13 9 -20 -10 -40 -33 -35 -39 -31 -28 15 11 43 19 48 38 25z"/>
</g>
</svg>
